HIERARCHY
ROOT Hips
{
	OFFSET 0.000000 0.000000 0.000000 
	CHANNELS 6 Xposition Yposition Zposition Zrotation Yrotation Xrotation
	JOINT LeftUpLeg
	{
		OFFSET 1.363060 -1.794630 0.839290 
		CHANNELS 3 Zrotation Yrotation Xrotation
		JOINT LeftLeg
		{
			OFFSET 2.448110 -6.726130 0.000000 
			CHANNELS 3 Zrotation Yrotation Xrotation
			JOINT LeftFoot
			{
				OFFSET 2.562200 -7.039590 0.000000 
				CHANNELS 3 Zrotation Yrotation Xrotation
				JOINT LeftToeBase
				{
					OFFSET 0.157640 -0.433110 2.322550 
					CHANNELS 3 Zrotation Yrotation Xrotation
					End Site
					{
						OFFSET 0.000000 0.000000 0.000000 
					}
				}
			}
		}
	}
	JOINT RightUpLeg
	{
		OFFSET -1.305520 -1.794630 0.839290 
		CHANNELS 3 Zrotation Yrotation Xrotation
		JOINT RightLeg
		{
			OFFSET -2.542530 -6.985550 0.000000 
			CHANNELS 3 Zrotation Yrotation Xrotation
			JOINT RightFoot
			{
				OFFSET -2.568260 -7.056230 0.000000 
				CHANNELS 3 Zrotation Yrotation Xrotation
				JOINT RightToeBase
				{
					OFFSET -0.164730 -0.452590 2.363150 
					CHANNELS 3 Zrotation Yrotation Xrotation
					End Site
					{
						OFFSET 0.000000 0.000000 0.000000 
					}
				}
			}
		}
	}
	JOINT Spine
	{
		OFFSET 0.028270 2.035590 -0.193380 
		CHANNELS 3 Zrotation Yrotation Xrotation
		JOINT Spine1
		{
			OFFSET 0.056720 2.048850 -0.042750 
			CHANNELS 3 Zrotation Yrotation Xrotation
			JOINT Neck1
			{
				OFFSET -0.054170 1.746240 0.172020 
				CHANNELS 3 Zrotation Yrotation Xrotation
				JOINT Head
				{
					OFFSET 0.104070 1.761360 -0.123970 
					CHANNELS 3 Zrotation Yrotation Xrotation
					End Site
					{
						OFFSET 0.000000 0.000000 0.000000 
					}
				}
			}
			JOINT LeftArm
			{
				OFFSET 3.362410 1.200890 -0.311210 
				CHANNELS 3 Zrotation Yrotation Xrotation
				JOINT LeftForeArm
				{
					OFFSET 4.983000 -0.000000 -0.000000 
					CHANNELS 3 Zrotation Yrotation Xrotation
					JOINT LeftHand
					{
						OFFSET 3.483560 -0.000000 -0.000000 
						CHANNELS 3 Zrotation Yrotation Xrotation
						JOINT LeftHandIndex1
						{
							OFFSET 0.715260 -0.000000 -0.000000 
							CHANNELS 3 Zrotation Yrotation Xrotation
							End Site
							{
								OFFSET 0.000000 0.000000 0.000000 
							}
						}
					}
				}
			}
			JOINT RightArm
			{
				OFFSET -3.136600 1.374050 -0.404650 
				CHANNELS 3 Zrotation Yrotation Xrotation
				JOINT RightForeArm
				{
					OFFSET -5.241900 -0.000000 -0.000000 
					CHANNELS 3 Zrotation Yrotation Xrotation
					JOINT RightHand
					{
						OFFSET -3.444170 -0.000000 -0.000000 
						CHANNELS 3 Zrotation Yrotation Xrotation
						JOINT RightHandIndex1
						{
							OFFSET -0.622530 -0.000000 -0.000000 
							CHANNELS 3 Zrotation Yrotation Xrotation
							End Site
							{
								OFFSET 0.000000 0.000000 0.000000 
							}
						}
					}
				}
			}
		}
	}
}
MOTION
Frames: 18
Frame Time: 0.041667
-4.696371 17.199027 0.303610 72.039573 78.248249 79.758221 -37.460981 5.526571 17.123514 6.579711 17.460677 53.090147 0.055581 0.643791 5.182536 0.068000 1.683000 4.630300 13.794255 7.641479 -35.474294 -5.666800 -14.663057 41.448282 -0.351253 7.106120 -15.566511 -0.093100 -1.967600 5.416100 0.186671 -1.680218 -1.810324 5.884301 -0.950357 0.245471 2.665828 6.706016 1.134172 -0.821900 2.670000 8.821300 -84.662083 6.414630 63.890116 129.562902 -52.412175 -93.695194 -1.271802 1.017432 -9.888867 -7.125000 0.000000 0.000000 70.350984 -46.288269 56.185620 -111.161690 53.176870 -75.138823 1.075439 -1.026137 -23.193761 7.125000 0.000000 0.000000 
-4.341378 17.094935 0.280773 69.134978 78.181530 76.230137 -37.128905 6.105891 15.666202 7.975236 18.413896 57.822694 0.008604 0.962032 4.033339 0.030400 1.125900 3.095300 14.544408 7.449779 -33.856798 -5.798281 -14.934334 42.203559 -0.375812 6.778478 -15.653604 -0.333500 -3.711300 10.265800 0.199102 -1.223510 -1.743213 5.755160 -0.732734 0.174851 2.607834 6.599666 1.050707 -0.874900 2.610700 8.786500 -84.890116 7.621336 63.910379 127.655947 -53.157526 -92.136443 -1.219755 0.982454 -10.950506 -7.125000 0.000000 0.000000 72.068406 -43.696234 54.375668 -110.226706 53.589911 -74.021395 1.129423 -1.068095 -22.712193 7.125000 0.000000 0.000000 
-3.983938 16.984318 0.260689 67.925942 78.167918 74.055274 -36.609873 6.789667 14.437267 9.493314 19.252633 62.707877 -0.035485 1.612286 3.327679 0.077800 1.799400 4.951700 15.328480 6.671118 -31.503486 -5.891444 -15.217412 42.962325 -0.683919 4.901910 -18.622213 -0.000500 0.142000 -0.390200 0.235781 -0.804313 -1.461090 5.695141 -0.624212 0.844438 2.523684 6.553671 0.808407 -0.922200 2.574600 8.630500 -85.212564 8.273972 63.791861 125.475253 -53.974589 -90.324509 -1.164375 0.947184 -12.348017 -7.125000 0.000000 0.000000 73.611310 -40.528312 52.564371 -109.169114 54.105226 -72.753839 1.193017 -1.102954 -22.305891 7.125000 0.000000 0.000000 
-3.636693 16.863506 0.240808 66.190200 78.176377 71.236047 -35.788517 7.794488 13.116629 11.082799 19.945308 67.603561 -0.071820 1.778757 1.945165 0.030000 1.117200 3.071300 16.082960 6.328703 -29.049486 -6.050640 -15.579978 43.996964 -0.919324 3.355332 -20.900489 -0.111900 2.156700 -5.938800 0.244620 -0.382258 -1.376197 5.512523 -0.398846 0.544525 2.617247 6.459605 0.723132 -0.852200 2.538600 8.532700 -85.542147 9.547401 63.751048 123.067383 -54.767062 -88.321129 -1.106433 0.905957 -13.926344 -7.125000 0.000000 0.000000 75.062814 -38.090832 51.127551 -108.150378 54.477381 -71.568858 1.248350 -1.143933 -21.990106 7.125000 0.000000 0.000000 
-3.305454 16.730154 0.231123 65.130221 78.508549 69.136161 -34.504054 8.551938 11.759671 12.706810 20.464586 72.430763 -0.082815 1.770990 1.554748 0.128600 2.311200 6.366500 17.042929 6.576209 -26.855247 -6.300709 -16.014597 45.321905 -0.981738 4.282166 -21.493072 -0.002100 0.293300 -0.805900 0.255904 -0.071362 -1.477188 5.138181 -0.132045 -0.601823 2.584714 6.266215 0.752788 -0.907600 2.450000 8.529900 -85.840990 11.297853 63.622085 120.477350 -55.507137 -86.163966 -1.045810 0.862990 -15.497145 -7.125000 0.000000 0.000000 76.648485 -36.107173 49.938709 -107.238566 54.735321 -70.510798 1.301901 -1.175376 -21.782241 7.125000 0.000000 0.000000 
-2.986858 16.589360 0.223986 63.938633 79.347519 67.086308 -32.724355 8.892382 10.258908 14.320189 20.816909 77.109313 -0.073839 1.331201 1.399743 0.130700 2.330300 6.419400 18.575040 7.157917 -25.049984 -6.579971 -16.544442 46.863808 -1.120103 3.770375 -22.701552 -0.000500 0.139900 -0.384200 0.371724 0.299821 -1.381229 4.858647 0.058599 -0.926841 2.294384 6.126047 0.474391 -1.113300 2.357100 8.359200 -86.518144 12.327748 63.081011 117.329286 -56.339748 -83.494068 -0.979824 0.836235 -16.833180 -7.125000 0.000000 0.000000 77.887632 -33.390577 48.871457 -106.548706 55.018948 -69.678199 1.354160 -1.192686 -22.044363 7.125000 0.000000 0.000000 
-2.668974 16.453357 0.212058 57.356651 80.947191 59.719668 -29.727987 9.486275 8.550225 15.888550 20.957769 81.556619 -0.004632 -0.620222 2.441004 0.096600 2.004100 5.516900 21.720506 8.303469 -23.231008 -6.759853 -17.093666 48.094565 -1.236650 2.427964 -23.876292 -0.024700 1.015300 -2.790900 0.573946 0.957962 -1.281852 4.250363 0.396259 -1.360044 1.978706 5.956743 0.052618 -1.301400 2.250000 8.084200 -87.387186 13.179922 62.339569 113.349044 -57.246794 -80.099341 -0.912963 0.817102 -17.900168 -7.125000 0.000000 0.000000 78.908056 -30.840427 48.044784 -106.454952 55.128472 -69.513502 1.379911 -1.182132 -22.641524 7.125000 0.000000 0.000000 
-2.351295 16.329181 0.205023 39.571373 82.965837 41.358414 -25.156428 9.980712 6.470042 17.470144 20.611990 86.201936 -1.393770 -25.809589 22.430100 0.083400 1.862600 5.126100 26.617883 9.822912 -21.223770 -6.946251 -17.741092 49.514017 -1.406471 1.987183 -25.370132 -0.005400 0.473300 -1.300600 0.895605 1.844771 -1.164723 3.374845 0.825651 -1.699235 1.633806 5.760475 -0.356812 -1.490900 2.125500 7.868700 -88.303475 13.850502 61.392181 108.737282 -58.108408 -76.148766 -0.855039 0.794853 -18.831679 -7.125000 0.000000 0.000000 79.761460 -28.043494 47.462822 -106.281880 55.251626 -69.259929 1.404381 -1.182024 -23.179406 7.125000 0.000000 0.000000 
-2.027907 16.216423 0.196460 8.980727 83.892949 10.367097 -20.002422 10.340868 3.809380 18.362947 20.303044 89.216267 -4.852982 -46.866804 52.857805 0.073000 1.743100 4.796100 31.876890 10.570841 -19.075485 -6.918431 -18.085547 50.033423 -1.569045 1.683210 -26.683086 -0.005700 0.487000 -1.338200 1.224855 2.630424 -1.026612 2.258055 1.214911 -1.722478 1.382407 5.615903 -0.546062 -1.694400 2.041600 7.879600 -89.011282 14.666081 60.106000 104.053789 -58.793238 -72.135551 -0.815406 0.768618 -19.687606 -7.125000 0.000000 0.000000 80.701794 -24.681863 47.308955 -106.346044 55.333515 -69.197630 1.446527 -1.167562 -23.869632 7.125000 0.000000 0.000000 
-1.708698 16.106112 0.180759 -17.176534 82.963047 -15.934322 -15.494408 11.668389 0.504979 18.934014 21.039970 88.002267 36.499701 -53.050048 105.226896 0.037100 1.244100 3.420700 36.102086 11.050031 -17.217640 -6.826787 -18.269348 50.206738 -1.729707 1.859270 -27.753587 -0.000400 0.127500 -0.350200 1.498788 3.474658 -0.861704 1.300086 1.636784 -1.420085 1.192877 5.384030 -0.657797 -1.844100 1.911500 7.961900 -89.698280 15.331621 58.916927 99.037953 -59.327568 -67.826111 -0.800249 0.736796 -20.407012 -7.125000 0.000000 0.000000 81.507042 -21.094483 46.954019 -106.455856 55.404750 -69.218470 1.469310 -1.172990 -24.279482 7.125000 0.000000 0.000000 
-1.379193 16.043515 0.171380 -33.186296 82.955753 -32.888003 -12.943833 10.817562 -1.322563 16.988312 20.861963 82.954425 46.972892 -39.639415 146.916180 0.005300 0.468400 1.287000 38.688773 9.331974 -14.187898 -6.529347 -18.114047 49.340636 -1.903983 1.572221 -29.144067 -0.000000 0.033400 -0.091800 1.719859 3.526160 -0.693804 0.790147 1.670248 -1.439550 0.958048 5.228215 -0.792060 -2.016300 1.810800 8.003000 -90.296450 16.261260 57.591839 93.997567 -59.648708 -63.498784 -0.807721 0.691585 -20.912920 -7.125000 0.000000 0.000000 81.906508 -17.665255 46.996059 -106.753923 55.410766 -69.434307 1.501640 -1.178212 -23.894172 7.125000 0.000000 0.000000 
-1.087307 15.974290 0.181065 -39.786862 82.715021 -39.244195 -11.597897 9.658396 -5.332129 15.145752 20.317362 77.196370 41.754027 -15.549787 171.343875 0.004400 0.427100 1.173700 39.932110 9.069041 -13.017734 -6.451461 -18.127689 49.238150 -2.047320 1.224497 -30.306908 -0.001700 0.267200 -0.734100 1.832940 3.710221 -0.717322 0.692161 1.754531 -1.649407 0.847370 5.126874 -0.815681 -2.124200 1.746400 8.089500 -90.634650 17.612869 56.152771 89.630596 -59.758419 -59.748870 -0.814195 0.639230 -21.311363 -7.125000 0.000000 0.000000 82.213257 -14.341296 47.177640 -106.873717 55.434476 -69.509532 1.501717 -1.215811 -22.929129 7.125000 0.000000 0.000000 
-0.751685 15.937689 0.183104 -39.476258 82.294115 -38.760668 -10.909650 9.451161 -9.309773 13.850437 20.000306 73.219040 41.207003 -12.151703 172.882358 0.021500 0.947600 2.604600 40.574659 8.852690 -11.415318 -6.309807 -18.035584 48.802294 -2.176917 1.257494 -31.183391 0.000000 0.035500 -0.097600 1.861703 4.036458 -0.708063 0.632845 1.900387 -1.589407 0.864517 5.056280 -0.727160 -2.130300 1.707500 8.202200 -90.809427 19.160997 54.736808 86.060613 -59.746544 -56.699852 -0.818502 0.570846 -21.795132 -7.125000 0.000000 0.000000 82.449832 -11.018890 47.462072 -107.103861 55.444691 -69.666026 1.528401 -1.236135 -22.424492 7.125000 0.000000 0.000000 
-0.396997 15.932694 0.174030 -38.796483 81.981291 -38.216756 -10.415529 9.381465 -12.640299 12.968513 19.732716 70.478362 40.962603 -10.531468 173.571567 0.023900 0.997200 2.741000 41.029564 8.190466 -9.296454 -6.111626 -17.860215 48.107134 -2.340002 1.671780 -32.076134 -0.012500 -0.723100 1.987200 1.855330 4.223736 -0.670404 0.421332 1.984347 -1.465773 0.889832 4.984686 -0.576232 -2.140800 1.673800 8.322300 -90.691419 20.799808 53.635050 83.008597 -59.653337 -54.118153 -0.835021 0.481645 -22.812620 -7.125000 0.000000 0.000000 82.655162 -7.635489 47.995293 -107.223875 55.484868 -69.669332 1.577118 -1.253616 -22.050198 7.125000 0.000000 0.000000 
-0.049650 15.938403 0.160267 -39.853969 81.864384 -39.330750 -9.983285 8.850131 -16.095273 12.185228 19.469688 68.024418 40.768205 -9.189952 174.169825 0.013800 0.757900 2.082900 41.375792 7.227642 -7.395494 -5.899028 -17.661111 47.341483 -2.468668 1.560761 -32.959583 -0.005400 -0.475600 1.306900 1.821578 4.275906 -0.664673 -0.030603 2.021347 -1.359858 0.824162 4.871275 -0.428233 -2.246200 1.619300 8.419400 -90.127238 22.744437 53.009320 80.828986 -59.533780 -52.298764 -0.856319 0.377480 -24.320515 -7.125000 0.000000 0.000000 83.137267 -4.432402 48.427106 -107.253208 55.525190 -69.598517 1.597648 -1.309457 -20.658884 7.125000 0.000000 0.000000 
0.283424 15.953390 0.147217 -42.619161 81.899659 -42.085201 -9.471728 7.893611 -19.624301 11.539041 19.231975 65.965869 40.598976 -7.956999 174.561017 0.030500 1.127600 3.099900 41.677868 6.083961 -5.661558 -5.652320 -17.421060 46.429324 -2.579716 1.310049 -33.778176 0.000000 0.017500 -0.048100 1.796379 4.308103 -0.711737 -0.515983 2.053375 -1.460352 0.722893 4.689403 -0.367358 -2.374400 1.529000 8.457600 -89.289967 25.065618 52.711178 80.696663 -59.510115 -52.231567 -0.884477 0.337591 -26.796910 -7.125000 0.000000 0.000000 83.864678 -1.590544 48.344789 -107.342629 55.548156 -69.539518 1.636093 -1.396268 -18.680128 7.125000 0.000000 0.000000 
0.610890 15.976329 0.130701 -45.471874 82.113593 -44.836981 -9.134426 6.718371 -23.111080 11.098545 19.083356 64.551700 40.473862 -7.002411 174.762460 0.052000 1.471000 4.045900 41.726058 4.842913 -3.841455 -5.280900 -17.010676 44.925609 -2.684678 1.790539 -34.231105 -0.006100 -0.503200 1.382600 1.777266 4.310311 -0.783259 -0.855898 2.059381 -1.647071 0.721238 4.452513 -0.429442 -2.431900 1.419500 8.434500 -88.383220 27.481548 52.674993 82.200334 -59.572988 -53.559022 -0.894423 0.280531 -29.411601 -7.125000 0.000000 0.000000 84.484142 1.236234 48.321024 -107.793683 55.465900 -69.913717 1.653928 -1.446696 -17.013072 7.125000 0.000000 0.000000 
0.974040 16.019250 0.099606 -41.778104 81.982715 -41.272966 -9.328245 6.585196 -25.951317 11.090934 19.107367 64.490182 40.449685 -6.830621 174.567600 0.015400 0.801900 2.204000 41.343654 3.544830 -1.156869 -4.780958 -16.399365 42.764843 -2.687517 2.109781 -34.147405 -0.001400 -0.244900 0.672900 1.694267 4.627208 -0.757805 -1.157225 2.219521 -1.562282 0.806437 4.201397 -0.541633 -2.426800 1.310200 8.385900 -87.285472 29.787932 52.990937 83.869603 -59.631123 -55.031976 -0.903464 0.237296 -31.082400 -7.125000 0.000000 0.000000 84.970281 3.839051 48.356650 -108.749940 55.252659 -70.860642 1.647980 -1.477240 -15.754682 7.125000 0.000000 0.000000 
